<?xml version="1.0" encoding="UTF-8" standalone="no"?>
<!-- Generator: Adobe Illustrator 26.1.0, SVG Export Plug-In . SVG Version: 6.00 Build 0)  -->

<svg
   version="1.1"
   id="Layer_1"
   x="0px"
   y="0px"
   width="530.68px"
   height="642.143px"
   viewBox="0 0 530.68 642.143"
   xml:space="preserve"
   sodipodi:docname="Pacman-ghost.svg"
   inkscape:version="1.4.2 (ebf0e94, 2025-05-08)"
   xmlns:inkscape="http://www.inkscape.org/namespaces/inkscape"
   xmlns:sodipodi="http://sodipodi.sourceforge.net/DTD/sodipodi-0.dtd"
   xmlns="http://www.w3.org/2000/svg"
   xmlns:svg="http://www.w3.org/2000/svg"><defs
   id="defs5" /><sodipodi:namedview
   id="namedview5"
   pagecolor="#ffffff"
   bordercolor="#000000"
   borderopacity="0.25"
   inkscape:showpageshadow="2"
   inkscape:pageopacity="0.0"
   inkscape:pagecheckerboard="0"
   inkscape:deskcolor="#d1d1d1"
   inkscape:zoom="1.8173522"
   inkscape:cx="265.22102"
   inkscape:cy="321.0715"
   inkscape:window-width="2560"
   inkscape:window-height="1369"
   inkscape:window-x="1672"
   inkscape:window-y="-8"
   inkscape:window-maximized="1"
   inkscape:current-layer="Layer_1" />

<path
   id="_x23_EC1E24_00000106129390568447541380000010069911489414743192_"
   fill="#EB2427"
   d="M 265.34099,0 C 56.695993,0 9.9266255e-4,190.119 9.9266255e-4,362.679 c 0,118.956 5.38300003745,228.419 7.20800003745,262.119 0.368,6.792 7.5400003,11.326 14.0400003,8.739 9.57,-3.808 23.526,-13.867 39.467,-39.468 18.487,-29.69 29.935,-41.295 35.992,-45.83 3.373997,-2.526 8.022997,-2.897 11.733997,-0.862 24.507,13.443 27.03,85.049 61.28,94.193 26.98,7.203 65.502,-55.255 84.353,-89.542 4.881,-8.877 17.651,-8.877 22.531,0 18.852,34.287 57.373,96.745 84.353,89.542 34.249,-9.143 36.772,-80.75 61.28,-94.193 3.711,-2.036 8.36,-1.664 11.734,0.862 6.057,4.534 17.506,16.14 35.992,45.83 15.937,25.596 29.89,35.656 39.461,39.466 6.502,2.589 13.678,-1.942 14.046,-8.737 1.825,-33.7 7.208,-143.164 7.208,-262.12 C 530.68099,190.119 473.98499,0 265.34099,0 Z m -104.134,357.799 c -49.061,0 -88.832997,-41.797 -88.832997,-93.357 0,-51.559 39.771997,-93.357 88.832997,-93.357 49.061,0 88.833,41.797 88.833,93.357 -10e-4,51.559 -39.773,93.357 -88.833,93.357 z m 208.268,0 c -49.061,0 -88.833,-41.797 -88.833,-93.357 0,-51.559 39.772,-93.357 88.833,-93.357 49.061,0 88.833,41.797 88.833,93.357 0,51.559 -39.772,93.357 -88.833,93.357 z"
   style="fill:#7fff2a" />


<g
   id="g1">
</g>
<g
   id="g2">
</g>
<g
   id="g3">
</g>
<g
   id="g4">
</g>
<g
   id="g5">
</g>
</svg>
